# xmcd
#
# Track frame offsets:
#	150
#	17567
#	29745
#	44047
#	63895
#	90782
#	107247
#	120775
#	141620
#	158815
#
# Disc length: 2423 seconds
#
# Revision: 1
# Processed by: cddbd v1.5.1PL0 Copyright (c) Steve Scherf et al.
# Submitted via: CDex 1.50Beta5
#
DISCID=7f09750a
DTITLE=財津和夫 - 宇宙塵
DYEAR=1993
DGENRE=
TTITLE0=Something in the sky
TTITLE1=根雪
TTITLE2=二人だけの夜
TTITLE3=土砂降りの日
TTITLE4=酒の唄
TTITLE5=Blue Train
TTITLE6=もし、それが…
TTITLE7=虚心未遂
TTITLE8=悪魔の子守唄
TTITLE9=光の輪
EXTD=
EXTT0=
EXTT1=
EXTT2=
EXTT3=
EXTT4=
EXTT5=
EXTT6=
EXTT7=
EXTT8=
EXTT9=
PLAYORDER=
